<svg version="1.2" xmlns="http://www.w3.org/2000/svg" viewBox="0 0 250 100" width="250" height="100">
	<title>Logo-svg</title>
	<style>
		.s0 { fill: #39e4ab } 
	</style>
	<g id="Layer copy 32">
		<g id="Layer">
			<path id="Layer" class="s0" d="m197 8h11.4v71.8h-11.4z"/>
			<path id="Layer" class="s0" d="m177.1 53.7c0 8.1-6.6 14.7-14.7 14.7h-14.7v-40.8h-11.4v52.2h5.7 5.7 14.7c14.4 0 26.1-11.7 26.1-26.1v-26.1h-11.4z"/>
			<path id="Layer" fill-rule="evenodd" class="s0" d="m101.7 27.6h26.1v52.2h-26.1c-14.4 0-26.1-11.7-26.1-26.1 0-14.4 11.7-26.1 26.1-26.1zm0 11.3c-8.1 0-14.7 6.6-14.7 14.8 0 8.1 6.6 14.7 14.7 14.7h14.7v-29.5z"/>
			<path id="Layer" class="s0" d="m228.3 53.7v-6.6h8.2v-11.3h-8.2v-8.2h-11.4v26.1c0 14.4 11.7 26.1 26.1 26.1v-11.4c-8.1 0-14.7-6.6-14.7-14.7z"/>
			<path id="Layer" class="s0" d="m76.7 8l-12.8 22.1-4.4 7.6-16.8 29.1-3.2 5.6-3.3-5.6 3.3-5.7-19.4-33.5h-13.1l27.3 47.3c1.8 3 4.9 4.9 8.4 4.9 3.6 0 6.7-1.9 8.5-4.9l25.8-44.8 12.8-22.1z"/>
		</g>
	</g>
</svg>